#!OML:ASF Y:\EmotionMaleHayes\Project 1\Capture day 1\Session 1\Male1.ASF
:FULLY-SPECIFIED
:DEGREES
318
root -27.7031 16.9122 -0.752573 -10.9768 74.1226 -9.59059
lowerback 7.0041 3.78967 -10.8582
upperback 4.94229 4.72856 -4.61068
thorax 0.822302 2.29324 0.934064
lowerneck -19.6631 4.24286 6.06206
upperneck 23.1642 4.11226 0.540411
head 10.8618 2.55342 -0.177498
rclavicle 9.54166e-015 4.77083e-014
rhumerus -45.3969 7.16957 -91.6843
rradius 47.7235
rwrist -6.37796
rhand -7.16307 -32.0635
rfingers 7.12502
rthumb 18.714 -61.1834
lclavicle 9.54166e-015 4.77083e-014
lhumerus -35.1247 -0.949884 82.5263
lradius 38.1139
lwrist 15.2601
lhand -19.516 -19.086
lfingers 7.12502
lthumb 6.80708 10.7845
rfemur 1.47485 -1.76767 7.58675
rtibia 16.2018
rfoot -14.5876 0.334078
rtoes -4.55158
lfemur 13.2326 2.82136 -19.239
ltibia 9.89004
lfoot -22.8484 17.6243
ltoes -2.01806
319
root -27.6988 16.9091 -0.748658 -11.5582 73.7488 -10.419
lowerback 6.90648 3.85187 -10.7791
upperback 4.91365 4.82195 -4.58256
thorax 0.839242 2.33893 0.91867
lowerneck -20.1883 4.39513 6.51917
upperneck 23.6143 4.23609 0.185303
head 11.155 2.6106 -0.344689
rclavicle 2.38542e-014 5.40694e-014
rhumerus -45.6089 7.44714 -91.794
rradius 48.2557
rwrist -6.55155
rhand -6.95999 -31.5955
rfingers 7.12502
rthumb 18.9093 -60.6964
lclavicle 2.38542e-014 5.40694e-014
lhumerus -35.2966 -1.36094 82.8401
lradius 38.9859
lwrist 14.892
lhand -18.9944 -19.7656
lfingers 7.12502
lthumb 7.31054 10.0881
rfemur 0.653689 -1.77581 8.13564
rtibia 16.7428
rfoot -14.785 -0.184755
rtoes -4.58415
lfemur 13.1266 2.53186 -19.1092
ltibia 9.75952
lfoot -23.0669 18.1346
ltoes -2.02426
320
root -27.7008 16.8953 -0.742443 -11.3686 72.7237 -10.7293
lowerback 6.50049 4.08866 -10.805
upperback 4.7435 5.16356 -4.54556
thorax 0.84556 2.50547 0.965742
lowerneck -19.6757 4.3207 5.80513
upperneck 23.1187 4.2241 0.835832
head 10.8367 2.61743 -0.012413
rclavicle -1.03368e-014 5.08889e-014
rhumerus -45.9863 7.59769 -91.8027
rradius 48.8656
rwrist -6.55234
rhand -6.78262 -31.043
rfingers 7.12502
rthumb 19.0799 -60.1272
lclavicle -1.03368e-014 5.08889e-014
lhumerus -35.4742 -1.4746 83.145
lradius 39.6655
lwrist 13.9256
lhand -18.7507 -20.0694
lfingers 7.12502
lthumb 7.54576 9.77604
rfemur -0.820019 -1.54676 8.70409
rtibia 17.4377
rfoot -14.7517 -0.299413
rtoes -3.80014
lfemur 12.7297 2.86946 -18.8929
ltibia 9.75464
lfoot -23.4418 18.6622
ltoes -1.51628
321
root -27.6917 16.8981 -0.739908 -11.6191 72.6516 -10.9758
lowerback 6.68606 4.08991 -10.8434
upperback 4.79821 5.14494 -4.57789
thorax 0.803327 2.49802 0.942427
lowerneck -19.5999 4.32939 5.52474
upperneck 22.9367 4.24022 1.17207
head 10.74 2.63908 0.151948
rclavicle -1.59028e-014 -5.40694e-014
rhumerus -46.2362 7.78755 -91.9818
rradius 49.5544
rwrist -6.75241
rhand -6.8304 -31.2046
rfingers 7.12502
rthumb 19.0339 -60.2932
lclavicle -1.59028e-014 -5.40694e-014
lhumerus -35.743 -1.81539 83.4243
lradius 40.3274
lwrist 12.5629
lhand -19.0073 -20.7183
lfingers 7.12502
lthumb 7.29809 9.13586
rfemur -1.12838 -1.57968 8.98951
rtibia 17.5627
rfoot -14.8304 -0.696054
rtoes -2.17068
lfemur 12.7367 2.89213 -18.7975
ltibia 9.90612
lfoot -23.5787 18.7552
ltoes -1.76273
322
root -27.6799 16.8959 -0.738065 -11.1193 72.5096 -10.5415
lowerback 6.62744 4.13469 -11.0312
upperback 4.86037 5.21724 -4.67601
thorax 0.89197 2.52848 0.94264
lowerneck -19.8144 4.42787 5.76757
upperneck 23.1992 4.36088 0.897492
head 10.894 2.68429 0.0412517
rclavicle 1.90833e-014 3.18055e-014
rhumerus -46.4565 7.96631 -92.1578
rradius 50.2455
rwrist -6.91266
rhand -6.96221 -31.4799
rfingers 7.12502
rthumb 18.9072 -60.581
lclavicle 1.90833e-014 3.18055e-014
lhumerus -35.8762 -2.22711 83.5569
lradius 41.408
lwrist 12.1019
lhand -17.7448 -20.2073
lfingers 7.12502
lthumb 8.51663 9.6009
rfemur -1.56214 -1.59823 9.05548
rtibia 17.657
rfoot -14.9279 -0.94036
rtoes -0.678064
lfemur 12.6286 3.23243 -18.8436
ltibia 10.0964
lfoot -23.6013 18.6656
ltoes -2.62959
323
root -27.669 16.8935 -0.733372 -10.1754 72.4035 -9.66911
lowerback 6.81791 4.17756 -11.2967
upperback 4.70986 5.21853 -4.86666
thorax 0.627084 2.54283 0.865204
lowerneck -19.8641 4.5227 6.04581
upperneck 23.6263 4.48329 0.641008
head 11.0804 2.74141 -0.0696177
rclavicle 4.29375e-014 -1.20861e-013
rhumerus -47.0158 8.15946 -92.4864
rradius 50.9424
rwrist -7.05807
rhand -7.08571 -31.6713
rfingers 7.12502
rthumb 18.7884 -60.784
lclavicle 4.29375e-014 -1.20861e-013
lhumerus -36.2747 -3.02127 83.7222
lradius 41.878
lwrist 10.1253
lhand -18.2441 -21.1371
lfingers 7.12502
lthumb 8.03474 8.69017
rfemur -2.00136 -1.66969 8.95531
rtibia 17.6667
rfoot -14.9896 -1.09583
rtoes 0.484105
lfemur 12.4586 3.58935 -19.0204
ltibia 10.3357
lfoot -23.706 18.4082
ltoes -2.73868
324
root -27.661 16.8909 -0.727334 -9.69261 72.4022 -9.28286
lowerback 6.91506 4.13713 -11.5353
upperback 4.68669 5.13811 -4.95118
thorax 0.548632 2.50469 0.903361
lowerneck -19.9065 4.62811 6.29335
upperneck 23.7747 4.64629 0.293639
head 11.165 2.79511 -0.207385
rclavicle 3.18055e-015 8.26944e-014
rhumerus -47.217 8.56718 -92.7686
rradius 51.4075
rwrist -7.32516
rhand -7.10797 -31.5353
rfingers 7.12502
rthumb 18.767 -60.65
lclavicle 3.18055e-015 8.26944e-014
lhumerus -36.3496 -3.49865 83.7651
lradius 42.5743
lwrist 8.88645
lhand -18.2235 -21.2453
lfingers 7.12502
lthumb 8.05463 8.58118
rfemur -2.41007 -1.83726 9.00674
rtibia 17.5064
rfoot -14.9647 -1.23334
rtoes 1.13276
lfemur 12.2973 3.71753 -19.1027
ltibia 10.5242
lfoot -23.915 18.1369
ltoes -1.72958
325
root -27.6364 16.8943 -0.727783 -9.63022 72.2165 -9.18646
lowerback 6.84406 4.1513 -11.5279
upperback 4.81953 5.19204 -5.03867
thorax 0.733529 2.52455 0.815373
lowerneck -19.8149 4.70754 6.56822
upperneck 23.6014 4.7745 -0.0876427
head 11.1048 2.82512 -0.375101
rclavicle -1.74931e-014 5.40694e-014
rhumerus -47.3016 8.91364 -93.0189
rradius 51.968
rwrist -7.59239
rhand -7.13697 -31.4514
rfingers 7.12502
rthumb 18.7391 -60.5688
lclavicle -1.74931e-014 5.40694e-014
lhumerus -36.2753 -4.02982 83.7767
lradius 43.1719
lwrist 7.3141
lhand -16.8302 -21.2047
lfingers 7.12502
lthumb 9.39917 8.56569
rfemur -2.628 -2.0719 9.12862
rtibia 17.0677
rfoot -14.6662 -1.0269
rtoes 0.65901
lfemur 12.4588 3.65606 -19.2086
ltibia 10.4635
lfoot -24.101 18.2264
ltoes -0.790907
326
root -27.6275 16.8946 -0.717204 -9.36588 72.2998 -9.11358
lowerback 7.02635 4.15338 -11.7403
upperback 4.6753 5.1339 -5.058
thorax 0.472165 2.50561 0.89291
lowerneck -19.563 4.68119 6.50777
upperneck 23.5389 4.79026 -0.124987
head 11.0325 2.82356 -0.382694
rclavicle 3.49861e-014 6.67916e-014
rhumerus -47.8904 9.14769 -93.2007
rradius 52.8162
rwrist -7.78603
rhand -7.24273 -31.6108
rfingers 7.12502
rthumb 18.6374 -60.738
lclavicle 3.49861e-014 6.67916e-014
lhumerus -36.5509 -4.44511 83.7764
lradius 44.2157
lwrist 6.12872
lhand -15.9427 -21.182
lfingers 7.12502
lthumb 10.2555 8.54797
rfemur -3.04997 -2.20109 9.31561
rtibia 16.7124
rfoot -14.6849 -0.832402
rtoes 0.944069
lfemur 12.1823 3.67178 -19.1909
ltibia 10.6299
lfoot -23.9498 18.1648
ltoes -0.994255
327
root -27.6149 16.8967 -0.705234 -9.53885 72.2914 -9.36966
lowerback 6.68833 4.09897 -11.9196
upperback 4.96628 5.14756 -4.96137
thorax 0.947147 2.47987 1.12683
lowerneck -19.6514 4.74689 6.34391
upperneck 23.3723 4.93482 -0.187909
head 10.988 2.86033 -0.356948
rclavicle 1.51076e-014 5.40694e-014
rhumerus -47.8909 9.65654 -93.2207
rradius 53.5893
rwrist -7.91899
rhand -7.18523 -31.6598
rfingers 7.12502
rthumb 18.6927 -60.7816
lclavicle 1.51076e-014 5.40694e-014
lhumerus -36.2339 -4.8708 83.9026
lradius 44.7456
lwrist 4.21423
lhand -17.0551 -22.4434
lfingers 7.12502
lthumb 9.18215 7.33669
rfemur -3.40171 -2.26665 9.66421
rtibia 16.3562
rfoot -14.7438 -0.62581
rtoes 0.476672
lfemur 12.0969 3.82483 -18.97
ltibia 10.8026
lfoot -23.8909 18.0439
ltoes -1.63049
